<svg width="254" height="84" viewBox="0 0 254 84" fill="none" xmlns="http://www.w3.org/2000/svg">
<path d="M24.2598 43H20.1558C19.9422 43 19.8354 42.9066 19.8354 42.7197L19.7954 14.7925C19.7954 14.5789 19.9022 14.4722 20.1157 14.4722H23.8193L30.7461 30.6279L30.5459 14.7925C30.5459 14.5789 30.666 14.4722 30.9062 14.4722H34.9702C35.1304 14.4722 35.2104 14.5789 35.2104 14.7925L35.2505 42.7598C35.2505 42.9199 35.1838 43 35.0503 43H31.4468L24.3398 27.9053L24.6401 42.6797C24.6401 42.8932 24.5133 43 24.2598 43ZM37.4326 42.7998L42.5176 14.6323C42.5443 14.5256 42.611 14.4722 42.7178 14.4722H48.6636C48.7703 14.4722 48.8371 14.5256 48.8638 14.6323L53.7485 42.7998C53.7619 42.9333 53.7085 43 53.5884 43H49.0439C48.9105 43 48.8371 42.9333 48.8237 42.7998L48.3833 39.7969H42.7979L42.3574 42.7998C42.3441 42.9333 42.2773 43 42.1572 43H37.5928C37.486 43 37.4326 42.9333 37.4326 42.7998ZM45.8809 23.9014L45.6406 22.3799L45.4604 23.9014L43.6187 35.4126H47.5625L45.8809 23.9014ZM63.8984 43.4004C62.4437 43.4004 61.1024 43.0267 59.8745 42.2793C58.66 41.5319 57.679 40.5376 56.9316 39.2964C56.1976 38.0418 55.8306 36.6672 55.8306 35.1724L55.8706 22.1797C55.8706 20.6582 56.2376 19.2902 56.9717 18.0757C57.6924 16.8478 58.6667 15.8669 59.8945 15.1328C61.1224 14.3854 62.457 14.0117 63.8984 14.0117C65.3932 14.0117 66.7345 14.3787 67.9224 15.1128C69.1235 15.8468 70.0845 16.8345 70.8052 18.0757C71.5392 19.3035 71.9062 20.6715 71.9062 22.1797L71.9463 35.1724C71.9463 36.6672 71.5859 38.0352 70.8652 39.2764C70.1312 40.5309 69.1569 41.5319 67.9424 42.2793C66.7279 43.0267 65.3799 43.4004 63.8984 43.4004ZM63.8984 38.4556C64.7259 38.4556 65.4466 38.1219 66.0605 37.4546C66.6745 36.7739 66.9814 36.0132 66.9814 35.1724L66.9414 22.1797C66.9414 21.2721 66.6545 20.5047 66.0806 19.8774C65.5067 19.2502 64.7793 18.9365 63.8984 18.9365C63.0576 18.9365 62.3369 19.2435 61.7363 19.8574C61.1357 20.4714 60.8354 21.2454 60.8354 22.1797V35.1724C60.8354 36.0666 61.1357 36.8407 61.7363 37.4946C62.3369 38.1353 63.0576 38.4556 63.8984 38.4556ZM83.7979 43H79.1733C79.0532 43 78.9932 42.9333 78.9932 42.7998V19.417H73.668C73.5345 19.417 73.4678 19.3503 73.4678 19.2168L73.5078 14.6323C73.5078 14.5256 73.5612 14.4722 73.668 14.4722H89.2432C89.39 14.4722 89.4634 14.5256 89.4634 14.6323V19.2168C89.4634 19.3503 89.41 19.417 89.3032 19.417H83.918L83.958 42.7998C83.958 42.9333 83.9046 43 83.7979 43ZM99.0527 43.4004C97.598 43.4004 96.2567 43.0267 95.0288 42.2793C93.8143 41.5319 92.8333 40.5376 92.0859 39.2964C91.3519 38.0418 90.9849 36.6672 90.9849 35.1724L91.0249 22.1797C91.0249 20.6582 91.3919 19.2902 92.126 18.0757C92.8467 16.8478 93.821 15.8669 95.0488 15.1328C96.2767 14.3854 97.6113 14.0117 99.0527 14.0117C100.548 14.0117 101.889 14.3787 103.077 15.1128C104.278 15.8468 105.239 16.8345 105.959 18.0757C106.694 19.3035 107.061 20.6715 107.061 22.1797L107.101 35.1724C107.101 36.6672 106.74 38.0352 106.02 39.2764C105.285 40.5309 104.311 41.5319 103.097 42.2793C101.882 43.0267 100.534 43.4004 99.0527 43.4004ZM99.0527 38.4556C99.8802 38.4556 100.601 38.1219 101.215 37.4546C101.829 36.7739 102.136 36.0132 102.136 35.1724L102.096 22.1797C102.096 21.2721 101.809 20.5047 101.235 19.8774C100.661 19.2502 99.9336 18.9365 99.0527 18.9365C98.2119 18.9365 97.4912 19.2435 96.8906 19.8574C96.29 20.4714 95.9897 21.2454 95.9897 22.1797V35.1724C95.9897 36.0666 96.29 36.8407 96.8906 37.4946C97.4912 38.1353 98.2119 38.4556 99.0527 38.4556ZM125.699 43H121.054C120.921 43 120.854 42.9333 120.854 42.7998L120.894 14.6323C120.894 14.5256 120.947 14.4722 121.054 14.4722H125.659C125.765 14.4722 125.819 14.5256 125.819 14.6323L125.859 42.7998C125.859 42.9333 125.806 43 125.699 43ZM136.429 43.4004C134.974 43.4004 133.633 43.0267 132.405 42.2793C131.191 41.5319 130.216 40.5376 129.482 39.2964C128.762 38.0418 128.401 36.6672 128.401 35.1724V33.2905C128.401 33.1437 128.468 33.0703 128.602 33.0703H133.206C133.313 33.0703 133.366 33.1437 133.366 33.2905V35.1724C133.366 36.0666 133.667 36.8407 134.267 37.4946C134.868 38.1353 135.588 38.4556 136.429 38.4556C137.283 38.4556 138.011 38.1286 138.611 37.4746C139.212 36.8073 139.512 36.0399 139.512 35.1724C139.512 34.1714 138.858 33.2972 137.55 32.5498C137.337 32.4163 137.056 32.2562 136.709 32.0693C136.376 31.8691 135.975 31.6423 135.508 31.3887C135.041 31.1351 134.587 30.8882 134.147 30.6479C133.707 30.3944 133.279 30.1541 132.866 29.9272C131.371 29.0464 130.257 27.9453 129.522 26.624C128.802 25.2894 128.441 23.7946 128.441 22.1396C128.441 20.6182 128.815 19.2435 129.562 18.0156C130.31 16.8011 131.284 15.8402 132.485 15.1328C133.7 14.4121 135.014 14.0518 136.429 14.0518C137.884 14.0518 139.219 14.4121 140.433 15.1328C141.648 15.8669 142.615 16.8411 143.336 18.0557C144.07 19.2702 144.437 20.6315 144.437 22.1396V25.5029C144.437 25.6097 144.384 25.6631 144.277 25.6631H139.672C139.566 25.6631 139.512 25.6097 139.512 25.5029L139.472 22.1396C139.472 21.1787 139.172 20.3979 138.571 19.7974C137.971 19.1968 137.257 18.8965 136.429 18.8965C135.588 18.8965 134.868 19.2168 134.267 19.8574C133.667 20.498 133.366 21.2588 133.366 22.1396C133.366 23.0339 133.553 23.7812 133.927 24.3818C134.314 24.9824 135.014 25.5563 136.029 26.1035C136.136 26.1569 136.382 26.2904 136.77 26.5039C137.157 26.7174 137.584 26.9577 138.051 27.2246C138.531 27.4782 138.965 27.7118 139.352 27.9253C139.739 28.1255 139.973 28.2456 140.053 28.2856C141.414 29.0464 142.488 29.9806 143.276 31.0884C144.077 32.1961 144.477 33.5575 144.477 35.1724C144.477 36.7339 144.117 38.1353 143.396 39.3765C142.662 40.6177 141.688 41.5986 140.473 42.3193C139.259 43.04 137.911 43.4004 136.429 43.4004ZM145.938 42.7998L151.023 14.6323C151.05 14.5256 151.117 14.4722 151.224 14.4722H157.169C157.276 14.4722 157.343 14.5256 157.37 14.6323L162.254 42.7998C162.268 42.9333 162.214 43 162.094 43H157.55C157.416 43 157.343 42.9333 157.33 42.7998L156.889 39.7969H151.304L150.863 42.7998C150.85 42.9333 150.783 43 150.663 43H146.099C145.992 43 145.938 42.9333 145.938 42.7998ZM154.387 23.9014L154.146 22.3799L153.966 23.9014L152.125 35.4126H156.068L154.387 23.9014ZM172.524 43H167.82C167.726 43 167.68 42.9466 167.68 42.8398L167.72 31.1885L162.234 14.6323C162.208 14.5256 162.248 14.4722 162.354 14.4722H166.919C167.052 14.4722 167.132 14.5256 167.159 14.6323L170.182 25.6631L173.265 14.6323C173.292 14.5256 173.359 14.4722 173.465 14.4722H178.07C178.177 14.4722 178.217 14.5256 178.19 14.6323L172.645 31.0283L172.685 42.8398C172.685 42.9466 172.631 43 172.524 43ZM179.051 42.7998L184.136 14.6323C184.162 14.5256 184.229 14.4722 184.336 14.4722H190.282C190.389 14.4722 190.455 14.5256 190.482 14.6323L195.367 42.7998C195.38 42.9333 195.327 43 195.207 43H190.662C190.529 43 190.455 42.9333 190.442 42.7998L190.001 39.7969H184.416L183.976 42.7998C183.962 42.9333 183.896 43 183.775 43H179.211C179.104 43 179.051 42.9333 179.051 42.7998ZM187.499 23.9014L187.259 22.3799L187.079 23.9014L185.237 35.4126H189.181L187.499 23.9014ZM202.734 43H198.089C197.983 43 197.929 42.9333 197.929 42.7998L198.009 14.6323C198.009 14.5256 198.063 14.4722 198.169 14.4722H203.174C203.281 14.4722 203.375 14.5256 203.455 14.6323L207.198 20.0376L210.922 14.6323C211.002 14.5256 211.102 14.4722 211.222 14.4722H216.247C216.367 14.4722 216.427 14.5256 216.427 14.6323L216.507 42.7998C216.507 42.9333 216.454 43 216.347 43H211.703C211.596 43 211.542 42.9333 211.542 42.7998L211.502 21.8794L207.198 28.1255L202.934 21.8794L202.894 42.7998C202.894 42.9333 202.841 43 202.734 43ZM218.569 42.7998L223.654 14.6323C223.681 14.5256 223.748 14.4722 223.854 14.4722H229.8C229.907 14.4722 229.974 14.5256 230 14.6323L234.885 42.7998C234.899 42.9333 234.845 43 234.725 43H230.181C230.047 43 229.974 42.9333 229.96 42.7998L229.52 39.7969H223.935L223.494 42.7998C223.481 42.9333 223.414 43 223.294 43H218.729C218.623 43 218.569 42.9333 218.569 42.7998ZM227.018 23.9014L226.777 22.3799L226.597 23.9014L224.755 35.4126H228.699L227.018 23.9014Z" fill="#FAF9F6"/>
<path d="M12.1055 57.2363L11.2461 70H8.99023L7.4082 65.459L6.96875 64.0039L6.50977 65.5762L5.04492 70H2.86719L1.98828 57.2363H3.62891L4.12695 65.918L4.27344 68.3008L4.88867 66.2793L6.43164 61.543H7.63281L9.41016 66.6211L10.0059 68.3008L10.0449 66.543L10.5527 57.2363H12.1055ZM21.3887 64.5801C21.3887 64.821 21.3854 65.0228 21.3789 65.1855C21.3724 65.3483 21.3626 65.5013 21.3496 65.6445H14.4648C14.4648 66.6471 14.7448 67.4186 15.3047 67.959C15.8646 68.4928 16.6719 68.7598 17.7266 68.7598C18.013 68.7598 18.2995 68.75 18.5859 68.7305C18.8724 68.7044 19.1491 68.6719 19.416 68.6328C19.6829 68.5938 19.9368 68.5514 20.1777 68.5059C20.4251 68.4538 20.653 68.3984 20.8613 68.3398V69.7363C20.3991 69.8665 19.875 69.9707 19.2891 70.0488C18.7096 70.1335 18.1074 70.1758 17.4824 70.1758C16.6426 70.1758 15.9199 70.0618 15.3145 69.834C14.709 69.6061 14.2109 69.2773 13.8203 68.8477C13.4362 68.4115 13.1497 67.8809 12.9609 67.2559C12.7786 66.6243 12.6875 65.9115 12.6875 65.1172C12.6875 64.4271 12.7852 63.776 12.9805 63.1641C13.1823 62.5456 13.472 62.0052 13.8496 61.543C14.2337 61.0742 14.7025 60.7031 15.2559 60.4297C15.8092 60.1562 16.4375 60.0195 17.1406 60.0195C17.8242 60.0195 18.4297 60.127 18.957 60.3418C19.4844 60.5566 19.9271 60.8626 20.2852 61.2598C20.6497 61.6504 20.9232 62.1289 21.1055 62.6953C21.2943 63.2552 21.3887 63.8835 21.3887 64.5801ZM19.6211 64.3359C19.6406 63.8997 19.5983 63.5026 19.4941 63.1445C19.39 62.7799 19.2272 62.4674 19.0059 62.207C18.791 61.9466 18.5208 61.7448 18.1953 61.6016C17.8698 61.4518 17.4922 61.377 17.0625 61.377C16.6914 61.377 16.3529 61.4486 16.0469 61.5918C15.7409 61.735 15.4772 61.9368 15.2559 62.1973C15.0345 62.4577 14.8555 62.7702 14.7188 63.1348C14.582 63.4993 14.4974 63.8997 14.4648 64.3359H19.6211ZM31.4824 64.9219C31.4824 65.7357 31.3685 66.4648 31.1406 67.1094C30.9193 67.7474 30.6003 68.291 30.1836 68.7402C29.7734 69.1829 29.2721 69.5247 28.6797 69.7656C28.0872 70 27.4199 70.1172 26.6777 70.1172C26.0983 70.1172 25.5059 70.0618 24.9004 69.9512C24.2949 69.8405 23.696 69.6647 23.1035 69.4238V56.2012H24.8027V60L24.7246 61.8164C25.2129 61.1589 25.7337 60.6966 26.2871 60.4297C26.847 60.1562 27.446 60.0195 28.084 60.0195C28.6439 60.0195 29.1354 60.1367 29.5586 60.3711C29.9818 60.6055 30.3366 60.9375 30.623 61.3672C30.9095 61.7904 31.1243 62.3047 31.2676 62.9102C31.4108 63.5091 31.4824 64.1797 31.4824 64.9219ZM29.7441 65C29.7441 64.4857 29.7051 64.0137 29.627 63.584C29.5553 63.1543 29.4382 62.7865 29.2754 62.4805C29.1126 62.1745 28.9043 61.9368 28.6504 61.7676C28.3965 61.5918 28.0938 61.5039 27.7422 61.5039C27.5273 61.5039 27.3092 61.5397 27.0879 61.6113C26.8665 61.6764 26.6354 61.7904 26.3945 61.9531C26.1602 62.1094 25.9095 62.321 25.6426 62.5879C25.3822 62.8483 25.1022 63.1738 24.8027 63.5645V68.3203C25.1348 68.4505 25.4733 68.5547 25.8184 68.6328C26.1634 68.7044 26.4922 68.7402 26.8047 68.7402C27.1953 68.7402 27.5664 68.6784 27.918 68.5547C28.276 68.431 28.5885 68.2259 28.8555 67.9395C29.1289 67.6465 29.3438 67.2624 29.5 66.7871C29.6628 66.3053 29.7441 65.7096 29.7441 65ZM42.5977 65.3027C42.5977 64.4694 42.7116 63.7305 42.9395 63.0859C43.1673 62.4349 43.4896 61.888 43.9062 61.4453C44.3294 60.9961 44.834 60.6576 45.4199 60.4297C46.0124 60.1953 46.6699 60.0781 47.3926 60.0781C47.7051 60.0781 48.0111 60.0977 48.3105 60.1367C48.6165 60.1758 48.916 60.2376 49.209 60.3223V56.2012H50.918V70H49.3945L49.3359 68.1445C48.8607 68.8346 48.3464 69.3457 47.793 69.6777C47.2396 70.0098 46.6406 70.1758 45.9961 70.1758C45.4362 70.1758 44.9414 70.0586 44.5117 69.8242C44.0885 69.5898 43.7337 69.2611 43.4473 68.8379C43.1673 68.4082 42.9557 67.8939 42.8125 67.2949C42.6693 66.696 42.5977 66.0319 42.5977 65.3027ZM44.3359 65.1953C44.3359 66.3802 44.5085 67.2656 44.8535 67.8516C45.2051 68.431 45.6999 68.7207 46.3379 68.7207C46.7676 68.7207 47.2201 68.5286 47.6953 68.1445C48.1771 67.7604 48.6816 67.1908 49.209 66.4355V61.8848C48.929 61.7546 48.6198 61.6569 48.2812 61.5918C47.9427 61.5202 47.6074 61.4844 47.2754 61.4844C46.3509 61.4844 45.6283 61.7839 45.1074 62.3828C44.5931 62.9818 44.3359 63.9193 44.3359 65.1953ZM61.373 64.5801C61.373 64.821 61.3698 65.0228 61.3633 65.1855C61.3568 65.3483 61.347 65.5013 61.334 65.6445H54.4492C54.4492 66.6471 54.7292 67.4186 55.2891 67.959C55.849 68.4928 56.6562 68.7598 57.7109 68.7598C57.9974 68.7598 58.2839 68.75 58.5703 68.7305C58.8568 68.7044 59.1335 68.6719 59.4004 68.6328C59.6673 68.5938 59.9212 68.5514 60.1621 68.5059C60.4095 68.4538 60.6374 68.3984 60.8457 68.3398V69.7363C60.3835 69.8665 59.8594 69.9707 59.2734 70.0488C58.694 70.1335 58.0918 70.1758 57.4668 70.1758C56.627 70.1758 55.9043 70.0618 55.2988 69.834C54.6934 69.6061 54.1953 69.2773 53.8047 68.8477C53.4206 68.4115 53.1341 67.8809 52.9453 67.2559C52.763 66.6243 52.6719 65.9115 52.6719 65.1172C52.6719 64.4271 52.7695 63.776 52.9648 63.1641C53.1667 62.5456 53.4564 62.0052 53.834 61.543C54.2181 61.0742 54.6868 60.7031 55.2402 60.4297C55.7936 60.1562 56.4219 60.0195 57.125 60.0195C57.8086 60.0195 58.4141 60.127 58.9414 60.3418C59.4688 60.5566 59.9115 60.8626 60.2695 61.2598C60.6341 61.6504 60.9076 62.1289 61.0898 62.6953C61.2786 63.2552 61.373 63.8835 61.373 64.5801ZM59.6055 64.3359C59.625 63.8997 59.5827 63.5026 59.4785 63.1445C59.3743 62.7799 59.2116 62.4674 58.9902 62.207C58.7754 61.9466 58.5052 61.7448 58.1797 61.6016C57.8542 61.4518 57.4766 61.377 57.0469 61.377C56.6758 61.377 56.3372 61.4486 56.0312 61.5918C55.7253 61.735 55.4616 61.9368 55.2402 62.1973C55.0189 62.4577 54.8398 62.7702 54.7031 63.1348C54.5664 63.4993 54.4818 63.8997 54.4492 64.3359H59.6055ZM70.8516 67.3242C70.8516 67.6693 70.793 67.9785 70.6758 68.252C70.5586 68.5254 70.3991 68.7695 70.1973 68.9844C69.9954 69.1927 69.7611 69.3717 69.4941 69.5215C69.2272 69.6712 68.9408 69.7949 68.6348 69.8926C68.3353 69.9902 68.026 70.0618 67.707 70.1074C67.388 70.153 67.0755 70.1758 66.7695 70.1758C66.1055 70.1758 65.4935 70.1465 64.9336 70.0879C64.3802 70.0293 63.8366 69.9349 63.3027 69.8047V68.2422C63.8757 68.4049 64.4453 68.5286 65.0117 68.6133C65.5781 68.6979 66.1413 68.7402 66.7012 68.7402C67.515 68.7402 68.1172 68.6296 68.5078 68.4082C68.8984 68.1868 69.0938 67.8711 69.0938 67.4609C69.0938 67.2852 69.0612 67.1289 68.9961 66.9922C68.9375 66.849 68.8268 66.7155 68.6641 66.5918C68.5013 66.4616 68.2474 66.3281 67.9023 66.1914C67.5638 66.0547 67.0983 65.8984 66.5059 65.7227C66.0632 65.5924 65.653 65.446 65.2754 65.2832C64.9043 65.1139 64.582 64.9154 64.3086 64.6875C64.0352 64.4596 63.8203 64.1927 63.6641 63.8867C63.5078 63.5807 63.4297 63.2194 63.4297 62.8027C63.4297 62.5293 63.4915 62.2298 63.6152 61.9043C63.7454 61.5788 63.9635 61.276 64.2695 60.9961C64.5755 60.7161 64.9889 60.485 65.5098 60.3027C66.0306 60.1139 66.6816 60.0195 67.4629 60.0195C67.847 60.0195 68.2734 60.0423 68.7422 60.0879C69.2109 60.127 69.6992 60.1986 70.207 60.3027V61.8164C69.6732 61.6862 69.1654 61.5918 68.6836 61.5332C68.2083 61.4681 67.7949 61.4355 67.4434 61.4355C67.0202 61.4355 66.6621 61.4681 66.3691 61.5332C66.0827 61.5983 65.8483 61.6895 65.666 61.8066C65.4902 61.9173 65.3633 62.0508 65.2852 62.207C65.207 62.3568 65.168 62.5195 65.168 62.6953C65.168 62.8711 65.2005 63.0306 65.2656 63.1738C65.3372 63.3171 65.4642 63.457 65.6465 63.5938C65.8353 63.724 66.0957 63.8574 66.4277 63.9941C66.7598 64.1243 67.1927 64.2676 67.7266 64.4238C68.306 64.5931 68.7943 64.7721 69.1914 64.9609C69.5885 65.1432 69.9108 65.3483 70.1582 65.5762C70.4056 65.804 70.5814 66.0612 70.6855 66.3477C70.7962 66.6341 70.8516 66.9596 70.8516 67.3242ZM76.4238 61.6016H73.5234V60.1953H78.1426V68.584H81.0625V70H73.2012V68.584H76.4238V61.6016ZM77.0195 56.084C77.2083 56.084 77.3841 56.1198 77.5469 56.1914C77.7096 56.2565 77.8496 56.3509 77.9668 56.4746C78.0905 56.5983 78.1849 56.7415 78.25 56.9043C78.3216 57.0605 78.3574 57.2331 78.3574 57.4219C78.3574 57.6042 78.3216 57.7767 78.25 57.9395C78.1849 58.1022 78.0905 58.2454 77.9668 58.3691C77.8496 58.4928 77.7096 58.5905 77.5469 58.6621C77.3841 58.7272 77.2083 58.7598 77.0195 58.7598C76.8307 58.7598 76.6549 58.7272 76.4922 58.6621C76.3294 58.5905 76.1862 58.4928 76.0625 58.3691C75.9453 58.2454 75.8509 58.1022 75.7793 57.9395C75.7142 57.7767 75.6816 57.6042 75.6816 57.4219C75.6816 57.2331 75.7142 57.0605 75.7793 56.9043C75.8509 56.7415 75.9453 56.5983 76.0625 56.4746C76.1862 56.3509 76.3294 56.2565 76.4922 56.1914C76.6549 56.1198 76.8307 56.084 77.0195 56.084ZM90.1406 61.582C90.3229 61.8099 90.4629 62.0768 90.5605 62.3828C90.6647 62.6823 90.7168 63.0078 90.7168 63.3594C90.7168 63.8672 90.6224 64.3327 90.4336 64.7559C90.2513 65.1725 89.9909 65.5306 89.6523 65.8301C89.3138 66.1296 88.9069 66.3639 88.4316 66.5332C87.9629 66.696 87.4453 66.7773 86.8789 66.7773C86.4688 66.7773 86.0846 66.735 85.7266 66.6504C85.3685 66.5592 85.0853 66.4486 84.877 66.3184C84.7533 66.5007 84.6491 66.6732 84.5645 66.8359C84.4798 66.9987 84.4375 67.181 84.4375 67.3828C84.4375 67.6302 84.5547 67.8353 84.7891 67.998C85.0299 68.1608 85.3457 68.2487 85.7363 68.2617L88.3145 68.3594C88.8027 68.3724 89.252 68.4342 89.6621 68.5449C90.0788 68.6556 90.4336 68.8151 90.7266 69.0234C91.026 69.2318 91.2572 69.4889 91.4199 69.7949C91.5892 70.1009 91.6738 70.4557 91.6738 70.8594C91.6738 71.2956 91.5794 71.709 91.3906 72.0996C91.2018 72.4902 90.9089 72.832 90.5117 73.125C90.1211 73.4245 89.623 73.6621 89.0176 73.8379C88.4121 74.0137 87.6927 74.1016 86.8594 74.1016C86.0651 74.1016 85.388 74.0365 84.8281 73.9062C84.2747 73.7826 83.819 73.6068 83.4609 73.3789C83.1029 73.1576 82.8424 72.8906 82.6797 72.5781C82.5169 72.2721 82.4355 71.9336 82.4355 71.5625C82.4355 71.0872 82.5462 70.6706 82.7676 70.3125C82.9889 69.9544 83.3307 69.6094 83.793 69.2773C83.6237 69.1992 83.4772 69.1016 83.3535 68.9844C83.2298 68.8672 83.1289 68.7402 83.0508 68.6035C82.9727 68.4603 82.9141 68.3105 82.875 68.1543C82.8359 67.998 82.8164 67.8451 82.8164 67.6953C82.8164 67.2721 82.9141 66.8848 83.1094 66.5332C83.3112 66.1816 83.5488 65.8496 83.8223 65.5371C83.6986 65.3874 83.5879 65.2409 83.4902 65.0977C83.3991 64.9544 83.3177 64.8014 83.2461 64.6387C83.181 64.4694 83.1289 64.2904 83.0898 64.1016C83.0573 63.9062 83.041 63.6849 83.041 63.4375C83.041 62.9297 83.1322 62.4674 83.3145 62.0508C83.5033 61.6276 83.7637 61.2663 84.0957 60.9668C84.4342 60.6673 84.8379 60.4362 85.3066 60.2734C85.7819 60.1042 86.306 60.0195 86.8789 60.0195C87.1198 60.0195 87.3509 60.0358 87.5723 60.0684C87.7936 60.1009 87.9889 60.1432 88.1582 60.1953H91.7129V61.582H90.1406ZM84.2422 71.416C84.2422 71.8783 84.4831 72.2135 84.9648 72.4219C85.4466 72.6367 86.1172 72.7441 86.9766 72.7441C87.5169 72.7441 87.9694 72.6953 88.334 72.5977C88.7051 72.5 89.0013 72.3698 89.2227 72.207C89.4505 72.0508 89.6133 71.8685 89.7109 71.6602C89.8086 71.4583 89.8574 71.25 89.8574 71.0352C89.8574 70.638 89.6947 70.3451 89.3691 70.1562C89.0436 69.9674 88.5456 69.8568 87.875 69.8242L85.3164 69.7363C85.1016 69.8796 84.9225 70.0195 84.7793 70.1562C84.6426 70.293 84.5352 70.4297 84.457 70.5664C84.3789 70.7096 84.3236 70.8496 84.291 70.9863C84.2585 71.1296 84.2422 71.2728 84.2422 71.416ZM84.7598 63.3984C84.7598 63.7109 84.8118 63.9974 84.916 64.2578C85.0202 64.5182 85.1667 64.7396 85.3555 64.9219C85.5443 65.1042 85.7656 65.2474 86.0195 65.3516C86.2799 65.4492 86.5664 65.498 86.8789 65.498C87.2174 65.498 87.5169 65.4427 87.7773 65.332C88.0443 65.2148 88.2656 65.0586 88.4414 64.8633C88.6237 64.668 88.7604 64.4434 88.8516 64.1895C88.9492 63.9355 88.998 63.6719 88.998 63.3984C88.998 63.0859 88.946 62.7995 88.8418 62.5391C88.7376 62.2786 88.5911 62.0573 88.4023 61.875C88.2135 61.6927 87.9889 61.5527 87.7285 61.4551C87.4746 61.3509 87.1914 61.2988 86.8789 61.2988C86.5404 61.2988 86.2376 61.3574 85.9707 61.4746C85.7103 61.5918 85.4889 61.748 85.3066 61.9434C85.1309 62.1322 84.9941 62.3535 84.8965 62.6074C84.8053 62.8613 84.7598 63.125 84.7598 63.3984ZM93.0762 60.1953H94.5898L94.6582 61.7773C94.9447 61.4388 95.2214 61.1589 95.4883 60.9375C95.7552 60.7096 96.0156 60.5273 96.2695 60.3906C96.5299 60.2539 96.7936 60.1595 97.0605 60.1074C97.3275 60.0488 97.6042 60.0195 97.8906 60.0195C98.8997 60.0195 99.6615 60.319 100.176 60.918C100.697 61.5104 100.957 62.4056 100.957 63.6035V70H99.2578V63.7402C99.2578 62.972 99.1146 62.4056 98.8281 62.041C98.5417 61.6699 98.1152 61.4844 97.5488 61.4844C97.3405 61.4844 97.1354 61.5169 96.9336 61.582C96.7383 61.6406 96.5332 61.748 96.3184 61.9043C96.1035 62.054 95.8691 62.2591 95.6152 62.5195C95.3678 62.7799 95.0879 63.1055 94.7754 63.4961V70H93.0762V60.1953ZM121.506 63.3398C121.506 64.1927 121.421 64.9674 121.252 65.6641C121.083 66.3607 120.842 66.9857 120.529 67.5391L122.502 70H120.246L119.387 68.9355C118.924 69.3262 118.407 69.6257 117.834 69.834C117.268 70.0358 116.652 70.1367 115.988 70.1367C115.357 70.1367 114.797 70.0488 114.309 69.873C113.82 69.6973 113.41 69.4531 113.078 69.1406C112.746 68.8216 112.492 68.444 112.316 68.0078C112.147 67.5716 112.062 67.0898 112.062 66.5625C112.062 66.0677 112.128 65.6283 112.258 65.2441C112.388 64.8535 112.564 64.5085 112.785 64.209C113.007 63.903 113.26 63.6361 113.547 63.4082C113.84 63.1738 114.146 62.959 114.465 62.7637L114.25 62.4609C113.885 62.0117 113.612 61.556 113.43 61.0938C113.254 60.6315 113.166 60.179 113.166 59.7363C113.166 59.2676 113.241 58.8346 113.391 58.4375C113.54 58.0404 113.758 57.6986 114.045 57.4121C114.338 57.1191 114.696 56.8913 115.119 56.7285C115.549 56.5658 116.037 56.4844 116.584 56.4844C117.111 56.4844 117.574 56.5592 117.971 56.709C118.368 56.8587 118.7 57.0638 118.967 57.3242C119.234 57.5846 119.432 57.8874 119.562 58.2324C119.699 58.571 119.768 58.9323 119.768 59.3164C119.768 59.8047 119.683 60.2344 119.514 60.6055C119.351 60.9701 119.133 61.2956 118.859 61.582C118.592 61.862 118.283 62.1126 117.932 62.334C117.587 62.5553 117.232 62.7702 116.867 62.9785L119.387 66.123C119.673 65.3548 119.807 64.4271 119.787 63.3398H121.506ZM113.83 66.3574C113.83 66.7025 113.885 67.0182 113.996 67.3047C114.107 67.5911 114.263 67.8385 114.465 68.0469C114.673 68.2487 114.924 68.4049 115.217 68.5156C115.516 68.6263 115.852 68.6816 116.223 68.6816C117.069 68.6816 117.811 68.3691 118.449 67.7441L115.344 63.8574C115.122 64.0072 114.917 64.1667 114.729 64.3359C114.546 64.5052 114.387 64.6908 114.25 64.8926C114.12 65.0944 114.016 65.3158 113.938 65.5566C113.866 65.7975 113.83 66.0645 113.83 66.3574ZM118.049 59.4824C118.049 58.9941 117.912 58.6133 117.639 58.3398C117.365 58.0599 116.994 57.9199 116.525 57.9199C116.265 57.9199 116.034 57.9622 115.832 58.0469C115.637 58.1315 115.471 58.2487 115.334 58.3984C115.197 58.5482 115.093 58.724 115.021 58.9258C114.956 59.1276 114.924 59.3457 114.924 59.5801C114.924 59.9316 114.989 60.2604 115.119 60.5664C115.249 60.8659 115.458 61.1979 115.744 61.5625L116.008 61.9043C116.288 61.748 116.551 61.5918 116.799 61.4355C117.046 61.2728 117.261 61.097 117.443 60.9082C117.632 60.7129 117.779 60.5013 117.883 60.2734C117.993 60.0391 118.049 59.7754 118.049 59.4824ZM131.502 63.3398C131.502 64.1927 131.417 64.9674 131.248 65.6641C131.079 66.3607 130.838 66.9857 130.525 67.5391L132.498 70H130.242L129.383 68.9355C128.921 69.3262 128.403 69.6257 127.83 69.834C127.264 70.0358 126.648 70.1367 125.984 70.1367C125.353 70.1367 124.793 70.0488 124.305 69.873C123.816 69.6973 123.406 69.4531 123.074 69.1406C122.742 68.8216 122.488 68.444 122.312 68.0078C122.143 67.5716 122.059 67.0898 122.059 66.5625C122.059 66.0677 122.124 65.6283 122.254 65.2441C122.384 64.8535 122.56 64.5085 122.781 64.209C123.003 63.903 123.257 63.6361 123.543 63.4082C123.836 63.1738 124.142 62.959 124.461 62.7637L124.246 62.4609C123.882 62.0117 123.608 61.556 123.426 61.0938C123.25 60.6315 123.162 60.179 123.162 59.7363C123.162 59.2676 123.237 58.8346 123.387 58.4375C123.536 58.0404 123.755 57.6986 124.041 57.4121C124.334 57.1191 124.692 56.8913 125.115 56.7285C125.545 56.5658 126.033 56.4844 126.58 56.4844C127.107 56.4844 127.57 56.5592 127.967 56.709C128.364 56.8587 128.696 57.0638 128.963 57.3242C129.23 57.5846 129.428 57.8874 129.559 58.2324C129.695 58.571 129.764 58.9323 129.764 59.3164C129.764 59.8047 129.679 60.2344 129.51 60.6055C129.347 60.9701 129.129 61.2956 128.855 61.582C128.589 61.862 128.279 62.1126 127.928 62.334C127.583 62.5553 127.228 62.7702 126.863 62.9785L129.383 66.123C129.669 65.3548 129.803 64.4271 129.783 63.3398H131.502ZM123.826 66.3574C123.826 66.7025 123.882 67.0182 123.992 67.3047C124.103 67.5911 124.259 67.8385 124.461 68.0469C124.669 68.2487 124.92 68.4049 125.213 68.5156C125.512 68.6263 125.848 68.6816 126.219 68.6816C127.065 68.6816 127.807 68.3691 128.445 67.7441L125.34 63.8574C125.118 64.0072 124.913 64.1667 124.725 64.3359C124.542 64.5052 124.383 64.6908 124.246 64.8926C124.116 65.0944 124.012 65.3158 123.934 65.5566C123.862 65.7975 123.826 66.0645 123.826 66.3574ZM128.045 59.4824C128.045 58.9941 127.908 58.6133 127.635 58.3398C127.361 58.0599 126.99 57.9199 126.521 57.9199C126.261 57.9199 126.03 57.9622 125.828 58.0469C125.633 58.1315 125.467 58.2487 125.33 58.3984C125.193 58.5482 125.089 58.724 125.018 58.9258C124.952 59.1276 124.92 59.3457 124.92 59.5801C124.92 59.9316 124.985 60.2604 125.115 60.5664C125.245 60.8659 125.454 61.1979 125.74 61.5625L126.004 61.9043C126.284 61.748 126.548 61.5918 126.795 61.4355C127.042 61.2728 127.257 61.097 127.439 60.9082C127.628 60.7129 127.775 60.5013 127.879 60.2734C127.99 60.0391 128.045 59.7754 128.045 59.4824ZM142.559 65.3027C142.559 64.4694 142.673 63.7305 142.9 63.0859C143.128 62.4349 143.451 61.888 143.867 61.4453C144.29 60.9961 144.795 60.6576 145.381 60.4297C145.973 60.1953 146.631 60.0781 147.354 60.0781C147.666 60.0781 147.972 60.0977 148.271 60.1367C148.577 60.1758 148.877 60.2376 149.17 60.3223V56.2012H150.879V70H149.355L149.297 68.1445C148.822 68.8346 148.307 69.3457 147.754 69.6777C147.201 70.0098 146.602 70.1758 145.957 70.1758C145.397 70.1758 144.902 70.0586 144.473 69.8242C144.049 69.5898 143.695 69.2611 143.408 68.8379C143.128 68.4082 142.917 67.8939 142.773 67.2949C142.63 66.696 142.559 66.0319 142.559 65.3027ZM144.297 65.1953C144.297 66.3802 144.469 67.2656 144.814 67.8516C145.166 68.431 145.661 68.7207 146.299 68.7207C146.729 68.7207 147.181 68.5286 147.656 68.1445C148.138 67.7604 148.643 67.1908 149.17 66.4355V61.8848C148.89 61.7546 148.581 61.6569 148.242 61.5918C147.904 61.5202 147.568 61.4844 147.236 61.4844C146.312 61.4844 145.589 61.7839 145.068 62.3828C144.554 62.9818 144.297 63.9193 144.297 65.1953ZM161.334 64.5801C161.334 64.821 161.331 65.0228 161.324 65.1855C161.318 65.3483 161.308 65.5013 161.295 65.6445H154.41C154.41 66.6471 154.69 67.4186 155.25 67.959C155.81 68.4928 156.617 68.7598 157.672 68.7598C157.958 68.7598 158.245 68.75 158.531 68.7305C158.818 68.7044 159.094 68.6719 159.361 68.6328C159.628 68.5938 159.882 68.5514 160.123 68.5059C160.37 68.4538 160.598 68.3984 160.807 68.3398V69.7363C160.344 69.8665 159.82 69.9707 159.234 70.0488C158.655 70.1335 158.053 70.1758 157.428 70.1758C156.588 70.1758 155.865 70.0618 155.26 69.834C154.654 69.6061 154.156 69.2773 153.766 68.8477C153.382 68.4115 153.095 67.8809 152.906 67.2559C152.724 66.6243 152.633 65.9115 152.633 65.1172C152.633 64.4271 152.73 63.776 152.926 63.1641C153.128 62.5456 153.417 62.0052 153.795 61.543C154.179 61.0742 154.648 60.7031 155.201 60.4297C155.755 60.1562 156.383 60.0195 157.086 60.0195C157.77 60.0195 158.375 60.127 158.902 60.3418C159.43 60.5566 159.872 60.8626 160.23 61.2598C160.595 61.6504 160.868 62.1289 161.051 62.6953C161.24 63.2552 161.334 63.8835 161.334 64.5801ZM159.566 64.3359C159.586 63.8997 159.544 63.5026 159.439 63.1445C159.335 62.7799 159.173 62.4674 158.951 62.207C158.736 61.9466 158.466 61.7448 158.141 61.6016C157.815 61.4518 157.438 61.377 157.008 61.377C156.637 61.377 156.298 61.4486 155.992 61.5918C155.686 61.735 155.423 61.9368 155.201 62.1973C154.98 62.4577 154.801 62.7702 154.664 63.1348C154.527 63.4993 154.443 63.8997 154.41 64.3359H159.566ZM162.131 60.1953H164.064L166.467 66.6797L166.984 68.2617L167.521 66.6406L169.904 60.1953H171.77L167.922 70H165.969L162.131 60.1953ZM181.326 64.5801C181.326 64.821 181.323 65.0228 181.316 65.1855C181.31 65.3483 181.3 65.5013 181.287 65.6445H174.402C174.402 66.6471 174.682 67.4186 175.242 67.959C175.802 68.4928 176.609 68.7598 177.664 68.7598C177.951 68.7598 178.237 68.75 178.523 68.7305C178.81 68.7044 179.087 68.6719 179.354 68.6328C179.62 68.5938 179.874 68.5514 180.115 68.5059C180.363 68.4538 180.59 68.3984 180.799 68.3398V69.7363C180.337 69.8665 179.812 69.9707 179.227 70.0488C178.647 70.1335 178.045 70.1758 177.42 70.1758C176.58 70.1758 175.857 70.0618 175.252 69.834C174.646 69.6061 174.148 69.2773 173.758 68.8477C173.374 68.4115 173.087 67.8809 172.898 67.2559C172.716 66.6243 172.625 65.9115 172.625 65.1172C172.625 64.4271 172.723 63.776 172.918 63.1641C173.12 62.5456 173.41 62.0052 173.787 61.543C174.171 61.0742 174.64 60.7031 175.193 60.4297C175.747 60.1562 176.375 60.0195 177.078 60.0195C177.762 60.0195 178.367 60.127 178.895 60.3418C179.422 60.5566 179.865 60.8626 180.223 61.2598C180.587 61.6504 180.861 62.1289 181.043 62.6953C181.232 63.2552 181.326 63.8835 181.326 64.5801ZM179.559 64.3359C179.578 63.8997 179.536 63.5026 179.432 63.1445C179.327 62.7799 179.165 62.4674 178.943 62.207C178.729 61.9466 178.458 61.7448 178.133 61.6016C177.807 61.4518 177.43 61.377 177 61.377C176.629 61.377 176.29 61.4486 175.984 61.5918C175.678 61.735 175.415 61.9368 175.193 62.1973C174.972 62.4577 174.793 62.7702 174.656 63.1348C174.52 63.4993 174.435 63.8997 174.402 64.3359H179.559ZM186.381 57.5977H183.48V56.2012H188.1V68.584H191.02V70H183.158V68.584H186.381V57.5977ZM201.572 65.0195C201.572 65.7812 201.465 66.4811 201.25 67.1191C201.035 67.7507 200.726 68.2943 200.322 68.75C199.919 69.1992 199.427 69.5508 198.848 69.8047C198.268 70.0521 197.611 70.1758 196.875 70.1758C196.172 70.1758 195.54 70.0684 194.98 69.8535C194.427 69.6322 193.955 69.3099 193.564 68.8867C193.18 68.4635 192.884 67.9395 192.676 67.3145C192.474 66.6895 192.373 65.9701 192.373 65.1562C192.373 64.3945 192.48 63.7012 192.695 63.0762C192.91 62.4447 193.219 61.9043 193.623 61.4551C194.027 60.9993 194.518 60.6478 195.098 60.4004C195.677 60.1465 196.335 60.0195 197.07 60.0195C197.773 60.0195 198.402 60.1302 198.955 60.3516C199.515 60.5664 199.987 60.8854 200.371 61.3086C200.762 61.7253 201.058 62.2461 201.26 62.8711C201.468 63.4961 201.572 64.2122 201.572 65.0195ZM199.834 65.0977C199.834 64.4922 199.766 63.9648 199.629 63.5156C199.499 63.0599 199.31 62.6823 199.062 62.3828C198.815 62.0768 198.512 61.849 198.154 61.6992C197.803 61.543 197.409 61.4648 196.973 61.4648C196.465 61.4648 196.029 61.5658 195.664 61.7676C195.306 61.9629 195.01 62.2266 194.775 62.5586C194.548 62.8906 194.378 63.278 194.268 63.7207C194.163 64.1569 194.111 64.6159 194.111 65.0977C194.111 65.7031 194.176 66.2337 194.307 66.6895C194.443 67.1452 194.635 67.526 194.883 67.832C195.13 68.1315 195.43 68.3594 195.781 68.5156C196.133 68.6654 196.53 68.7402 196.973 68.7402C197.48 68.7402 197.913 68.6426 198.271 68.4473C198.636 68.2454 198.932 67.9785 199.16 67.6465C199.395 67.3145 199.564 66.9303 199.668 66.4941C199.779 66.0514 199.834 65.5859 199.834 65.0977ZM211.412 64.9219C211.412 65.7943 211.288 66.556 211.041 67.207C210.8 67.8581 210.465 68.3984 210.035 68.8281C209.605 69.2578 209.098 69.5801 208.512 69.7949C207.926 70.0098 207.291 70.1172 206.607 70.1172C206.295 70.1172 205.982 70.1009 205.67 70.0684C205.364 70.0358 205.051 69.9805 204.732 69.9023V74.0039H203.033V60.1953H204.547L204.654 61.8359C205.143 61.1654 205.663 60.6966 206.217 60.4297C206.77 60.1562 207.369 60.0195 208.014 60.0195C208.574 60.0195 209.065 60.1367 209.488 60.3711C209.911 60.6055 210.266 60.9375 210.553 61.3672C210.839 61.7904 211.054 62.3047 211.197 62.9102C211.34 63.5091 211.412 64.1797 211.412 64.9219ZM209.674 65C209.674 64.4857 209.635 64.0137 209.557 63.584C209.485 63.1543 209.368 62.7865 209.205 62.4805C209.042 62.1745 208.834 61.9368 208.58 61.7676C208.326 61.5918 208.023 61.5039 207.672 61.5039C207.457 61.5039 207.239 61.5397 207.018 61.6113C206.796 61.6764 206.565 61.7904 206.324 61.9531C206.09 62.1094 205.839 62.321 205.572 62.5879C205.312 62.8483 205.032 63.1738 204.732 63.5645V68.3203C205.045 68.4505 205.374 68.5547 205.719 68.6328C206.064 68.7044 206.402 68.7402 206.734 68.7402C207.652 68.7402 208.372 68.431 208.893 67.8125C209.413 67.1875 209.674 66.25 209.674 65ZM220.021 70V62.959C220.021 62.653 220.008 62.4023 219.982 62.207C219.963 62.0117 219.927 61.8587 219.875 61.748C219.829 61.6309 219.768 61.5495 219.689 61.5039C219.618 61.4583 219.527 61.4355 219.416 61.4355C219.286 61.4355 219.165 61.4746 219.055 61.5527C218.944 61.6309 218.824 61.7578 218.693 61.9336C218.57 62.1094 218.43 62.3438 218.273 62.6367C218.124 62.9232 217.945 63.278 217.736 63.7012V70H216.184V63.1445C216.184 62.7865 216.171 62.4967 216.145 62.2754C216.125 62.054 216.089 61.8815 216.037 61.7578C215.992 61.6341 215.93 61.5495 215.852 61.5039C215.773 61.4583 215.679 61.4355 215.568 61.4355C215.451 61.4355 215.34 61.4681 215.236 61.5332C215.132 61.5983 215.015 61.7155 214.885 61.8848C214.761 62.054 214.621 62.2852 214.465 62.5781C214.309 62.8711 214.123 63.2454 213.908 63.7012V70H212.346V60.1953H213.645L213.723 62.0605C213.892 61.6895 214.055 61.3737 214.211 61.1133C214.374 60.8529 214.54 60.6445 214.709 60.4883C214.878 60.3255 215.057 60.2083 215.246 60.1367C215.441 60.0586 215.656 60.0195 215.891 60.0195C216.418 60.0195 216.818 60.1921 217.092 60.5371C217.365 60.8822 217.502 61.416 217.502 62.1387C217.658 61.8001 217.811 61.5007 217.961 61.2402C218.111 60.9733 218.27 60.752 218.439 60.5762C218.615 60.3939 218.807 60.2572 219.016 60.166C219.224 60.0684 219.465 60.0195 219.738 60.0195C220.969 60.0195 221.584 60.9668 221.584 62.8613V70H220.021ZM231.307 64.5801C231.307 64.821 231.303 65.0228 231.297 65.1855C231.29 65.3483 231.281 65.5013 231.268 65.6445H224.383C224.383 66.6471 224.663 67.4186 225.223 67.959C225.783 68.4928 226.59 68.7598 227.645 68.7598C227.931 68.7598 228.217 68.75 228.504 68.7305C228.79 68.7044 229.067 68.6719 229.334 68.6328C229.601 68.5938 229.855 68.5514 230.096 68.5059C230.343 68.4538 230.571 68.3984 230.779 68.3398V69.7363C230.317 69.8665 229.793 69.9707 229.207 70.0488C228.628 70.1335 228.025 70.1758 227.4 70.1758C226.561 70.1758 225.838 70.0618 225.232 69.834C224.627 69.6061 224.129 69.2773 223.738 68.8477C223.354 68.4115 223.068 67.8809 222.879 67.2559C222.697 66.6243 222.605 65.9115 222.605 65.1172C222.605 64.4271 222.703 63.776 222.898 63.1641C223.1 62.5456 223.39 62.0052 223.768 61.543C224.152 61.0742 224.62 60.7031 225.174 60.4297C225.727 60.1562 226.355 60.0195 227.059 60.0195C227.742 60.0195 228.348 60.127 228.875 60.3418C229.402 60.5566 229.845 60.8626 230.203 61.2598C230.568 61.6504 230.841 62.1289 231.023 62.6953C231.212 63.2552 231.307 63.8835 231.307 64.5801ZM229.539 64.3359C229.559 63.8997 229.516 63.5026 229.412 63.1445C229.308 62.7799 229.145 62.4674 228.924 62.207C228.709 61.9466 228.439 61.7448 228.113 61.6016C227.788 61.4518 227.41 61.377 226.98 61.377C226.609 61.377 226.271 61.4486 225.965 61.5918C225.659 61.735 225.395 61.9368 225.174 62.1973C224.952 62.4577 224.773 62.7702 224.637 63.1348C224.5 63.4993 224.415 63.8997 224.383 64.3359H229.539ZM233.021 60.1953H234.535L234.604 61.7773C234.89 61.4388 235.167 61.1589 235.434 60.9375C235.701 60.7096 235.961 60.5273 236.215 60.3906C236.475 60.2539 236.739 60.1595 237.006 60.1074C237.273 60.0488 237.549 60.0195 237.836 60.0195C238.845 60.0195 239.607 60.319 240.121 60.918C240.642 61.5104 240.902 62.4056 240.902 63.6035V70H239.203V63.7402C239.203 62.972 239.06 62.4056 238.773 62.041C238.487 61.6699 238.061 61.4844 237.494 61.4844C237.286 61.4844 237.081 61.5169 236.879 61.582C236.684 61.6406 236.479 61.748 236.264 61.9043C236.049 62.054 235.814 62.2591 235.561 62.5195C235.313 62.7799 235.033 63.1055 234.721 63.4961V70H233.021V60.1953ZM250.918 69.8633C250.534 69.9609 250.137 70.0293 249.727 70.0684C249.316 70.1139 248.9 70.1367 248.477 70.1367C247.246 70.1367 246.328 69.86 245.723 69.3066C245.117 68.7467 244.814 67.8906 244.814 66.7383V61.6211H242.07V60.1953H244.814V57.5L246.514 57.0605V60.1953H250.918V61.6211H246.514V66.6016C246.514 67.3047 246.699 67.832 247.07 68.1836C247.448 68.5286 248.001 68.7012 248.73 68.7012C249.043 68.7012 249.385 68.6784 249.756 68.6328C250.127 68.5807 250.514 68.5026 250.918 68.3984V69.8633Z" fill="#FAF9F6"/>
</svg>
